<?xml version="1.0" standalone="no"?>
<!DOCTYPE svg PUBLIC "-//W3C//DTD SVG 20010904//EN"
 "http://www.w3.org/TR/2001/REC-SVG-20010904/DTD/svg10.dtd">
<svg version="1.0" xmlns="http://www.w3.org/2000/svg"
 width="2000.000000pt" height="2000.000000pt" viewBox="0 0 2000.000000 2000.000000"
 preserveAspectRatio="xMidYMid meet">
<metadata>
Created by potrace 1.16, written by Peter Selinger 2001-2019
</metadata>
<g transform="translate(0.000000,2000.000000) scale(0.100000,-0.100000)"
fill="#000000" stroke="none">
<path d="M6830 17927 c-91 -34 -190 -129 -241 -229 -83 -165 -26 -339 199
-603 77 -90 133 -136 225 -183 36 -18 86 -48 113 -65 81 -54 160 -88 389 -168
144 -51 194 -81 165 -99 -37 -24 -96 -33 -250 -37 -174 -5 -281 4 -430 38
-116 27 -161 44 -260 103 -115 69 -214 165 -330 322 -159 213 -208 251 -314
242 -181 -15 -292 -215 -226 -408 29 -87 57 -131 126 -202 88 -90 218 -174
356 -229 214 -86 300 -100 726 -126 154 -9 156 -16 40 -122 -370 -338 -595
-624 -831 -1056 -280 -512 -475 -1165 -562 -1876 -44 -363 -61 -1111 -30
-1364 35 -296 59 -434 120 -705 82 -364 272 -870 433 -1150 94 -164 354 -542
416 -606 6 -6 43 -50 81 -97 63 -77 267 -285 400 -408 72 -66 299 -247 375
-300 36 -24 90 -62 120 -84 31 -22 67 -47 80 -55 242 -142 507 -284 599 -320
30 -12 75 -31 100 -42 103 -48 578 -198 625 -198 29 0 5 26 -58 63 -70 41
-289 193 -356 247 -238 193 -421 369 -617 594 -58 66 -115 129 -127 139 -11
10 -30 26 -41 35 -11 10 -45 38 -75 62 -145 119 -205 173 -334 299 -312 307
-572 671 -759 1061 -125 263 -162 347 -192 439 -9 29 -24 65 -31 80 -8 14 -14
31 -14 38 0 7 -11 47 -25 90 -68 205 -133 493 -175 768 -60 397 -73 973 -30
1360 19 170 79 523 115 670 19 77 43 180 55 229 18 78 67 236 90 291 5 11 24
67 44 125 61 182 189 462 299 651 205 355 522 706 796 884 140 89 154 97 351
175 25 10 83 27 130 39 384 93 695 12 843 -220 39 -63 75 -154 64 -165 -3 -4
-23 6 -43 22 -20 16 -45 34 -55 40 -10 6 -27 18 -36 27 -35 31 -171 87 -234
96 -73 10 -105 9 -373 -12 -103 -9 -193 -20 -198 -25 -11 -11 115 -81 190
-107 84 -29 126 -62 180 -141 24 -35 98 -71 165 -80 26 -4 85 1 142 11 94 17
100 17 149 0 80 -28 161 -95 161 -133 0 -18 -170 -110 -300 -161 -105 -42
-176 -64 -367 -111 -168 -42 -273 -80 -398 -144 -298 -154 -560 -461 -697
-821 -8 -22 -21 -53 -28 -70 -13 -30 -43 -124 -72 -220 -8 -27 -25 -103 -38
-168 -21 -105 -27 -164 -39 -407 -13 -246 59 -619 169 -880 66 -157 171 -339
262 -451 156 -193 318 -331 491 -419 34 -17 64 -35 66 -39 3 -4 -19 -45 -49
-91 -78 -120 -199 -368 -239 -490 -63 -194 -80 -308 -80 -540 0 -335 50 -573
193 -915 181 -432 503 -845 880 -1128 124 -94 178 -131 321 -222 66 -43 235
-133 330 -178 271 -126 601 -231 935 -297 88 -17 178 -35 200 -40 85 -20 333
-59 475 -75 30 -3 89 -10 130 -15 136 -17 255 -26 480 -35 69 -3 175 -7 235
-10 61 -3 171 -7 245 -10 74 -3 182 -10 240 -15 58 -5 143 -12 190 -15 345
-23 832 -98 1135 -176 239 -61 401 -121 640 -239 138 -67 207 -110 415 -254
60 -42 194 -179 238 -243 80 -117 148 -277 177 -413 33 -152 31 -407 -4 -510
-5 -14 -17 -52 -26 -85 -57 -196 -234 -443 -444 -617 -103 -85 -287 -212 -361
-248 -25 -12 -52 -28 -60 -34 -13 -11 -202 -100 -267 -127 -13 -5 -33 -13 -45
-18 -43 -18 -241 -81 -254 -81 -7 0 -33 -6 -56 -13 -54 -17 -159 -42 -263 -61
-133 -25 -330 -36 -770 -40 -437 -4 -533 -12 -742 -57 -103 -22 -299 -86 -354
-115 -20 -10 -61 -32 -90 -48 -171 -90 -439 -304 -439 -350 0 -21 6 -20 39 3
52 37 167 89 246 111 155 44 202 51 375 56 198 7 370 -4 680 -40 487 -57 785
-34 1261 98 128 35 475 181 552 231 20 14 37 21 37 16 0 -12 -120 -119 -185
-165 -153 -107 -255 -176 -286 -194 -19 -11 -83 -48 -144 -84 -381 -223 -835
-383 -1315 -462 -52 -9 -178 -25 -280 -36 -102 -11 -195 -23 -208 -25 -12 -3
-114 -5 -227 -5 -113 0 -205 -4 -205 -9 0 -18 130 -54 280 -77 300 -46 356
-53 489 -63 352 -28 647 -8 1060 70 354 67 724 188 1023 335 60 30 111 54 113
54 11 0 315 176 394 229 86 57 286 205 306 226 6 6 49 43 96 83 159 133 374
369 502 552 109 157 224 383 287 565 120 348 131 749 30 1078 -28 91 -67 195
-89 237 -38 72 -79 142 -103 175 -15 22 -44 63 -64 90 -61 85 -224 247 -349
346 -110 87 -226 169 -239 169 -3 0 -25 13 -49 30 -91 61 -354 174 -574 246
-151 49 -153 73 -6 55 98 -13 111 -15 253 -47 186 -41 423 -116 555 -174 22
-10 81 -35 130 -56 169 -72 304 -149 461 -265 74 -55 264 -240 315 -307 24
-31 46 -59 50 -62 18 -16 103 -148 142 -220 91 -169 149 -370 173 -600 34
-336 0 -579 -138 -960 -82 -229 -220 -489 -401 -757 -34 -50 -79 -118 -99
-150 -81 -127 -296 -358 -421 -452 -28 -22 -70 -56 -92 -75 -66 -60 -74 -46
-17 29 21 28 54 80 73 115 20 36 74 128 121 205 47 77 102 174 123 215 20 41
55 98 76 127 21 29 39 54 39 57 0 2 14 35 31 71 39 84 119 317 119 345 0 25
-19 22 -34 -6 -6 -10 -21 -33 -33 -51 -13 -17 -23 -34 -23 -37 0 -9 -122 -185
-212 -307 -144 -193 -410 -468 -648 -670 -41 -35 -79 -67 -85 -71 -5 -4 -26
-20 -45 -36 -112 -92 -349 -251 -492 -331 -249 -137 -462 -226 -758 -317 -80
-24 -158 -48 -175 -54 -16 -6 -124 -24 -240 -42 -192 -28 -232 -31 -470 -32
-218 0 -286 3 -420 22 -260 36 -347 51 -410 68 -33 9 -76 20 -95 25 -94 22
-274 70 -355 94 -49 15 -146 43 -215 62 -69 19 -204 61 -300 93 -157 52 -445
139 -510 153 -14 3 -63 14 -110 25 -183 42 -292 55 -465 56 -289 1 -536 -44
-704 -129 -36 -18 -97 -45 -136 -59 -155 -59 -183 -71 -260 -109 -174 -87
-331 -192 -572 -384 -151 -121 -203 -174 -203 -210 0 -34 38 -38 132 -14 331
83 540 107 877 98 239 -6 407 -22 636 -62 165 -29 202 -38 791 -198 292 -80
465 -120 864 -202 368 -76 868 -124 1140 -111 224 12 430 32 670 67 196 29
550 115 730 178 379 132 662 256 1034 453 622 329 1096 662 1573 1106 174 162
265 259 392 417 219 272 353 512 454 815 98 292 127 462 127 742 0 377 -71
659 -251 998 -71 135 -117 205 -214 325 -159 197 -351 354 -665 547 -252 155
-578 299 -904 399 -71 22 -135 44 -140 48 -23 19 -416 102 -566 120 -166 20
-398 33 -617 33 -298 -1 -398 -7 -773 -47 -80 -8 -192 -20 -250 -26 -58 -5
-145 -14 -195 -20 -49 -6 -117 -12 -150 -15 -33 -3 -130 -12 -215 -19 -320
-29 -605 -38 -836 -26 -121 6 -248 15 -284 20 -36 5 -90 12 -120 15 -185 21
-692 129 -900 192 -118 36 -260 84 -279 94 -9 5 -43 18 -76 31 -90 33 -263
121 -342 172 -39 25 -88 55 -111 67 -22 12 -46 28 -53 36 -6 8 -15 14 -20 14
-20 0 -283 214 -388 315 -110 106 -252 266 -318 358 -54 76 -152 245 -197 341
-179 381 -189 907 -24 1230 161 314 468 526 898 621 134 29 529 38 675 16 159
-25 393 -87 570 -151 44 -16 114 -41 155 -55 41 -15 84 -30 95 -35 11 -4 38
-15 60 -23 173 -67 285 -112 329 -132 28 -13 65 -27 81 -31 17 -4 41 -13 55
-20 22 -11 79 -36 145 -63 24 -10 54 -23 120 -52 28 -12 88 -37 133 -56 46
-18 107 -44 135 -57 94 -43 237 -106 242 -106 2 0 28 -11 57 -24 73 -33 204
-84 388 -151 85 -31 164 -60 175 -65 31 -14 459 -155 575 -189 58 -17 125 -38
150 -46 153 -49 540 -123 759 -145 175 -17 466 -14 589 6 48 8 39 -10 -30 -59
-211 -147 -468 -247 -773 -299 -175 -30 -607 -32 -780 -4 -149 23 -303 53
-340 65 -16 5 -109 28 -205 51 -173 41 -204 49 -350 91 -127 36 -160 46 -305
93 -138 45 -301 102 -360 126 -16 6 -61 23 -100 37 -38 14 -103 41 -143 59
-41 19 -82 34 -91 34 -9 0 -21 4 -26 8 -15 12 -86 34 -92 28 -8 -8 60 -112
104 -159 101 -107 216 -199 380 -303 59 -38 110 -71 113 -74 11 -13 130 -80
250 -140 241 -120 677 -273 965 -338 140 -32 189 -40 325 -56 52 -6 140 -28
140 -34 0 -10 -56 -44 -120 -74 -95 -44 -270 -98 -380 -118 -149 -26 -499 -22
-685 9 -135 22 -424 91 -485 115 -19 8 -87 33 -150 56 -63 22 -133 49 -155 60
-48 22 -226 106 -345 162 -47 23 -114 58 -150 78 -36 20 -85 49 -110 62 -108
61 -298 173 -335 198 -22 15 -71 44 -110 65 -38 21 -84 49 -102 62 -17 12 -35
23 -38 23 -4 0 -43 27 -87 60 -112 85 -125 70 -57 -64 23 -44 52 -95 65 -113
13 -17 24 -34 24 -37 0 -3 17 -30 37 -58 197 -278 576 -618 917 -822 128 -78
151 -94 143 -102 -9 -10 -264 15 -437 42 -228 36 -401 83 -640 174 -94 35
-326 145 -350 166 -8 7 -46 29 -85 50 -38 21 -101 60 -140 88 -100 71 -184
129 -209 143 -88 50 -384 276 -486 371 -88 81 -98 71 -51 -48 38 -96 51 -123
127 -247 151 -246 302 -414 554 -612 252 -199 502 -325 905 -457 277 -90 637
-144 970 -145 228 0 582 25 600 43 3 3 -51 61 -120 129 -128 127 -148 157 -97
144 15 -4 47 -11 72 -15 232 -42 339 -60 422 -69 143 -16 409 -14 512 4 47 8
103 18 124 21 84 13 168 37 294 83 172 64 221 85 275 121 24 17 47 30 51 30
14 0 148 102 201 153 53 52 166 211 173 243 5 28 49 53 118 68 36 8 99 21 140
30 131 28 278 76 420 136 103 44 124 48 117 24 -3 -11 -13 -46 -22 -79 -22
-80 -45 -155 -55 -180 -4 -11 -15 -43 -24 -72 -21 -70 -88 -215 -218 -472
-106 -210 -116 -235 -100 -244 7 -5 125 -20 247 -33 66 -6 150 -22 295 -54
161 -36 160 -36 199 1 48 46 96 157 190 435 117 351 209 726 260 1068 25 167
33 203 53 225 12 14 71 76 130 136 112 115 243 268 295 345 103 152 238 500
194 500 -6 0 -42 -16 -79 -35 -77 -40 -291 -142 -372 -178 -114 -50 -295 -113
-515 -178 -33 -10 -248 -47 -310 -54 -280 -31 -735 7 -1015 86 -19 5 -92 25
-161 43 -193 52 -477 140 -534 165 -11 5 -33 14 -50 19 -16 6 -68 25 -115 42
-47 17 -110 41 -140 52 -30 11 -69 26 -87 34 -17 8 -33 14 -36 14 -3 0 -36 14
-74 31 -74 33 -81 36 -163 69 -224 90 -285 117 -505 215 -27 12 -99 44 -160
70 -297 129 -364 159 -412 181 -28 13 -54 24 -57 24 -3 0 -33 13 -68 29 -35
15 -108 45 -163 66 -55 22 -104 42 -110 46 -30 21 -659 228 -755 248 -25 5
-88 19 -140 30 -155 33 -377 52 -581 50 -178 -2 -266 -10 -464 -43 -246 -41
-318 -49 -485 -50 -161 0 -183 2 -280 27 -317 85 -609 327 -763 634 -52 103
-116 296 -136 414 -21 124 -27 348 -11 474 34 280 124 550 246 740 45 71 151
174 237 231 77 51 175 104 193 104 7 0 14 4 16 9 2 4 44 23 93 40 50 18 104
39 120 46 17 7 95 36 175 65 80 29 173 65 208 81 35 16 67 29 71 29 4 0 31 12
61 26 57 27 174 71 206 77 10 2 39 10 64 17 68 21 356 19 440 -4 117 -31 215
-82 291 -152 26 -25 49 -31 49 -15 0 5 -5 45 -11 87 -44 322 -232 542 -582
684 -63 26 -78 37 -84 58 -13 55 -104 277 -139 339 -43 78 -153 196 -238 257
-128 91 -274 156 -435 192 -36 8 -127 30 -201 48 -74 19 -191 46 -260 61 -310
66 -525 157 -742 317 -109 80 -155 125 -168 164 -10 28 -6 41 29 115 51 109
65 165 59 247 -10 134 -93 253 -215 309 -68 31 -215 42 -273 20z"/>
<path d="M13382 17249 c-96 -24 -242 -98 -310 -156 -161 -137 -262 -357 -262
-568 0 -371 288 -670 689 -716 130 -15 291 21 419 93 213 121 387 437 369 673
-15 201 -124 420 -263 527 -72 55 -196 119 -288 147 -89 28 -248 28 -354 0z"/>
<path d="M13700 15251 c-186 -52 -381 -163 -523 -298 -168 -160 -416 -544
-532 -823 -15 -36 -34 -81 -42 -100 -25 -58 -29 -70 -75 -200 -40 -113 -63
-184 -103 -320 -16 -56 -61 -286 -79 -405 -20 -135 -14 -423 13 -550 68 -329
216 -556 457 -701 129 -77 339 -156 484 -180 135 -23 383 -29 575 -13 164 14
415 16 492 6 21 -3 97 -13 168 -22 72 -9 136 -18 143 -20 11 -4 33 34 31 53
-1 4 -1 87 0 185 1 204 8 217 59 109 18 -38 32 -72 32 -75 0 -4 9 -26 19 -50
62 -135 99 -248 144 -437 43 -177 57 -248 57 -279 0 -16 3 -32 8 -34 4 -3 75
4 158 13 221 26 490 107 566 171 31 25 31 26 20 72 -7 25 -12 97 -12 160 0
155 -65 674 -130 1042 -69 386 -100 618 -108 805 -9 190 -10 197 -47 295 -114
306 -429 838 -643 1086 -229 264 -425 406 -677 490 -92 30 -111 33 -245 35
-115 3 -158 -1 -210 -15z m-31 -1312 c120 -21 256 -103 379 -231 68 -70 210
-247 288 -359 61 -87 154 -248 154 -265 0 -7 -8 -15 -19 -19 -33 -10 -763 -8
-857 3 -252 29 -430 140 -489 304 -22 61 -16 201 10 262 53 124 217 263 355
302 58 16 98 17 179 3z"/>
<path d="M4880 11576 c-30 -18 -95 -57 -145 -86 -185 -109 -476 -351 -741
-615 -471 -470 -790 -968 -1076 -1685 -99 -246 -190 -551 -243 -810 -63 -307
-85 -532 -85 -865 0 -488 53 -818 200 -1263 76 -230 112 -318 211 -515 284
-568 709 -1007 1308 -1351 148 -86 292 -159 391 -201 36 -15 83 -35 105 -45
585 -260 1376 -433 2145 -471 416 -20 901 -5 1275 41 44 5 166 16 270 25 216
18 391 44 548 81 59 14 118 23 131 20 21 -5 88 7 266 49 52 12 139 36 330 91
47 13 171 49 275 78 280 80 652 206 665 226 3 4 23 13 45 20 57 18 299 121
455 193 47 21 101 46 120 54 76 34 459 224 520 258 290 163 384 219 610 364
160 102 323 214 463 316 80 59 366 283 385 301 7 7 34 30 60 51 190 152 542
492 733 708 205 232 249 297 217 322 -26 20 -225 107 -323 140 -198 67 -596
164 -667 163 -23 -1 -73 -37 -253 -185 -54 -44 -107 -87 -119 -95 -11 -8 -52
-40 -91 -71 -38 -30 -92 -71 -120 -90 -27 -19 -86 -61 -131 -94 -45 -33 -137
-94 -203 -135 -67 -41 -132 -82 -146 -90 -146 -92 -358 -211 -425 -240 -14 -5
-61 -31 -105 -56 -260 -146 -677 -333 -1175 -524 -192 -73 -216 -82 -400 -140
-91 -29 -174 -56 -185 -60 -73 -29 -93 -34 -530 -144 -442 -112 -697 -162
-1020 -201 -363 -44 -518 -51 -970 -47 -439 3 -787 39 -1205 122 -392 78 -835
217 -1147 361 -24 10 -45 19 -47 19 -4 0 -208 111 -261 143 -44 26 -164 102
-235 150 -419 281 -795 710 -979 1117 -19 41 -40 84 -47 95 -11 18 -58 134
-104 260 -28 73 -87 307 -105 414 -67 387 -53 840 39 1236 57 241 161 555 253
760 77 171 195 410 221 449 15 22 31 49 35 59 3 9 24 43 45 75 22 31 49 75 61
97 78 144 347 516 534 740 166 197 338 397 385 447 24 25 43 51 41 56 -2 6
-29 -4 -59 -22z"/>
<path d="M9645 11393 c-303 -25 -573 -142 -743 -322 -100 -105 -165 -225 -223
-411 -22 -67 -24 -94 -24 -260 0 -194 2 -208 57 -400 45 -155 140 -340 236
-459 26 -32 47 -20 28 17 -22 43 -76 201 -92 270 -37 160 -34 364 8 492 41
127 127 263 221 350 54 49 129 102 135 95 3 -3 -1 -32 -8 -65 -14 -67 -7 -187
16 -278 63 -246 263 -401 519 -402 143 0 285 55 388 150 76 69 141 197 158
310 13 83 3 211 -17 217 -7 2 -21 -11 -33 -30 -24 -39 -78 -78 -133 -96 -124
-41 -278 71 -263 191 15 119 63 184 157 213 114 35 454 26 718 -20 14 -3 79
-12 145 -20 66 -9 127 -18 135 -20 8 -3 94 -16 190 -30 96 -14 207 -33 245
-41 182 -38 226 -46 231 -41 12 12 -8 26 -73 52 -38 15 -81 33 -98 40 -69 31
-325 135 -380 155 -33 12 -69 25 -80 30 -28 13 -406 145 -545 190 -112 37
-280 82 -350 94 -117 19 -434 37 -525 29z"/>
</g>
</svg>
